<?xml version="1.0" encoding="UTF-8"?>
<svg id="_レイヤー_2" data-name="レイヤー 2" xmlns="http://www.w3.org/2000/svg" viewBox="0 0 430.43 102.26">
  <defs>
    <style>
      .cls-1 {
        fill: #727171;
      }

      .cls-2 {
        fill: #898989;
      }
    </style>
  </defs>
  <g id="_レイヤー_1-2" data-name="レイヤー 1">
    <g>
      <g>
        <g>
          <path class="cls-1" d="M200.91,93.68v1.36l-.86.03c-.86.03-1.44-.12-1.76-.44-.2-.21-.31-.53-.31-.96v-4.28h-.97v-1.29h.97v-1.94h1.8v1.94h1.13v1.29h-1.13v3.67c0,.29.04.46.11.53.07.07.29.1.66.1.06,0,.11,0,.18,0,.06,0,.12,0,.18,0Z"/>
          <path class="cls-1" d="M208.67,92.93c-.05.41-.26.83-.64,1.26-.6.67-1.43,1.01-2.5,1.01-.88,0-1.66-.29-2.34-.85s-1.01-1.5-1.01-2.78c0-1.2.3-2.12.91-2.77.61-.64,1.4-.96,2.37-.96.58,0,1.1.11,1.56.32.46.22.85.56,1.15,1.03.27.41.45.89.53,1.43.05.32.07.78.06,1.38h-4.75c.03.7.24,1.19.66,1.47.25.17.55.26.91.26.37,0,.68-.11.91-.32.13-.11.24-.27.34-.48h1.85ZM206.88,90.8c-.03-.48-.18-.84-.44-1.09-.26-.25-.59-.37-.97-.37-.42,0-.75.13-.98.4-.23.26-.38.62-.44,1.07h2.82Z"/>
          <path class="cls-1" d="M216.65,90.52h-1.86c-.03-.26-.12-.49-.26-.7-.2-.28-.52-.42-.95-.42-.61,0-1.03.3-1.26.91-.12.32-.18.75-.18,1.29s.06.92.18,1.23c.22.58.62.87,1.22.87.42,0,.73-.11.91-.34s.29-.53.33-.89h1.85c-.04.55-.24,1.07-.6,1.57-.57.79-1.41,1.19-2.53,1.19s-1.94-.33-2.47-.99-.79-1.52-.79-2.58c0-1.19.29-2.12.87-2.79.58-.66,1.38-.99,2.41-.99.87,0,1.58.2,2.14.59.56.39.88,1.08.98,2.07Z"/>
          <path class="cls-1" d="M224.83,90.89v4.08h-1.86v-4.22c0-.37-.06-.68-.19-.91-.17-.32-.48-.48-.94-.48s-.84.16-1.09.48-.37.78-.37,1.37v3.76h-1.81v-9.36h1.81v3.32c.26-.4.57-.68.91-.84.35-.16.71-.24,1.09-.24.43,0,.82.07,1.17.22.35.15.64.38.86.68.19.26.31.53.35.8.04.27.06.72.06,1.34Z"/>
          <path class="cls-1" d="M230.45,89.37c-.62,0-1.04.26-1.27.78-.12.28-.18.63-.18,1.06v3.76h-1.81v-6.93h1.75v1.01c.23-.36.45-.61.66-.77.37-.28.85-.42,1.42-.42.72,0,1.31.19,1.76.56.46.38.69,1,.69,1.87v4.68h-1.86v-4.22c0-.37-.05-.65-.15-.84-.18-.36-.52-.54-1.02-.54Z"/>
          <path class="cls-1" d="M241.59,88.9c.59.73.88,1.6.88,2.61s-.29,1.89-.88,2.62-1.48,1.09-2.67,1.09-2.08-.36-2.67-1.09-.88-1.6-.88-2.62.29-1.87.88-2.61,1.48-1.1,2.67-1.1,2.08.37,2.67,1.1ZM238.92,89.34c-.53,0-.94.19-1.23.56-.29.38-.43.91-.43,1.61s.14,1.23.43,1.61.7.57,1.23.57.94-.19,1.22-.57c.29-.38.43-.92.43-1.61s-.14-1.23-.43-1.61c-.28-.38-.69-.56-1.22-.56Z"/>
          <path class="cls-1" d="M244.47,85.58h1.82v9.39h-1.82v-9.39Z"/>
          <path class="cls-1" d="M254.5,88.9c.59.73.88,1.6.88,2.61s-.29,1.89-.88,2.62-1.48,1.09-2.67,1.09-2.08-.36-2.67-1.09-.88-1.6-.88-2.62.29-1.87.88-2.61,1.48-1.1,2.67-1.1,2.08.37,2.67,1.1ZM251.82,89.34c-.53,0-.94.19-1.23.56-.29.38-.43.91-.43,1.61s.14,1.23.43,1.61c.29.38.7.57,1.23.57s.94-.19,1.22-.57.43-.92.43-1.61-.14-1.23-.43-1.61c-.28-.38-.69-.56-1.22-.56Z"/>
          <path class="cls-1" d="M259.3,96.19c.2.17.52.25.99.25.65,0,1.09-.22,1.31-.66.14-.28.22-.75.22-1.41v-.45c-.17.3-.36.52-.56.67-.36.28-.83.41-1.41.41-.89,0-1.61-.31-2.14-.94-.53-.63-.8-1.48-.8-2.55s.26-1.9.77-2.6c.51-.7,1.24-1.05,2.19-1.05.35,0,.65.05.91.16.44.18.8.52,1.07,1.01v-1h1.76v6.59c0,.9-.15,1.57-.45,2.03-.52.78-1.51,1.17-2.98,1.17-.89,0-1.61-.17-2.17-.52-.56-.35-.87-.87-.93-1.56h1.98c.05.21.13.37.25.46ZM258.99,92.6c.25.59.69.88,1.33.88.42,0,.78-.16,1.08-.48s.44-.83.44-1.53c0-.66-.14-1.16-.42-1.5-.28-.34-.65-.52-1.12-.52-.64,0-1.08.3-1.32.9-.13.32-.19.71-.19,1.18,0,.4.07.76.2,1.08Z"/>
          <path class="cls-1" d="M268.78,93.15l1.43-5.12h1.93l-2.38,6.83c-.46,1.32-.82,2.13-1.09,2.45s-.8.48-1.61.48c-.16,0-.29,0-.39,0-.1,0-.24-.01-.44-.02v-1.45h.23c.18.02.35.01.51,0,.16-.02.3-.07.41-.15.11-.07.2-.22.3-.45s.13-.37.11-.42l-2.55-7.25h2.02l1.52,5.12Z"/>
          <path class="cls-1" d="M278.41,88.78c.48-.61,1.3-.92,2.47-.92.76,0,1.44.15,2.03.45.59.3.89.87.89,1.71v3.19c0,.22,0,.49.01.8.01.24.05.4.11.48.06.08.15.15.27.21v.27h-1.98c-.06-.14-.09-.27-.11-.4-.02-.12-.04-.26-.05-.42-.25.27-.54.5-.87.7-.39.22-.83.34-1.33.34-.63,0-1.15-.18-1.56-.54-.41-.36-.61-.87-.61-1.53,0-.85.33-1.47.99-1.86.36-.21.89-.36,1.59-.44l.62-.08c.34-.04.58-.1.72-.16.26-.11.39-.28.39-.52,0-.28-.1-.48-.3-.59-.2-.11-.49-.16-.87-.16-.43,0-.73.11-.91.32-.13.16-.21.37-.25.64h-1.75c.04-.61.21-1.11.51-1.5ZM279.76,93.66c.17.14.38.21.62.21.39,0,.75-.11,1.08-.34.33-.23.5-.65.51-1.26v-.68c-.11.07-.23.13-.35.17-.12.05-.28.09-.48.13l-.41.08c-.38.07-.66.15-.82.25-.28.17-.42.42-.42.77,0,.31.09.53.26.67Z"/>
          <path class="cls-1" d="M289.33,89.37c-.62,0-1.04.26-1.27.78-.12.28-.18.63-.18,1.06v3.76h-1.81v-6.93h1.75v1.01c.23-.36.45-.61.66-.77.37-.28.85-.42,1.42-.42.72,0,1.31.19,1.76.56.46.38.69,1,.69,1.87v4.68h-1.86v-4.22c0-.37-.05-.65-.15-.84-.18-.36-.52-.54-1.02-.54Z"/>
          <path class="cls-1" d="M301.01,85.59v9.38h-1.76v-.96c-.26.41-.56.71-.89.9s-.74.28-1.24.28c-.81,0-1.49-.33-2.05-.98-.55-.66-.83-1.5-.83-2.53,0-1.18.27-2.12.82-2.8s1.28-1.02,2.19-1.02c.42,0,.79.09,1.12.28.33.19.59.44.8.77v-3.31h1.84ZM296.11,91.54c0,.64.13,1.15.38,1.54.25.39.63.58,1.15.58s.91-.19,1.17-.57.4-.88.4-1.49c0-.85-.21-1.46-.64-1.82-.26-.22-.57-.33-.92-.33-.53,0-.92.2-1.17.6-.25.4-.37.9-.37,1.49Z"/>
          <path class="cls-1" d="M313.6,90.52h-1.86c-.03-.26-.12-.49-.26-.7-.2-.28-.52-.42-.95-.42-.61,0-1.03.3-1.26.91-.12.32-.18.75-.18,1.29s.06.92.18,1.23c.22.58.62.87,1.22.87.42,0,.73-.11.91-.34s.29-.53.33-.89h1.85c-.04.55-.24,1.07-.6,1.57-.57.79-1.41,1.19-2.53,1.19s-1.94-.33-2.47-.99-.79-1.52-.79-2.58c0-1.19.29-2.12.87-2.79.58-.66,1.39-.99,2.41-.99.87,0,1.58.2,2.14.59s.88,1.08.98,2.07Z"/>
          <path class="cls-1" d="M321.3,88.9c.59.73.88,1.6.88,2.61s-.29,1.89-.88,2.62-1.48,1.09-2.67,1.09-2.08-.36-2.67-1.09-.88-1.6-.88-2.62.29-1.87.88-2.61,1.48-1.1,2.67-1.1,2.08.37,2.67,1.1ZM318.62,89.34c-.53,0-.94.19-1.23.56-.29.38-.43.91-.43,1.61s.14,1.23.43,1.61.7.57,1.23.57.94-.19,1.22-.57c.28-.38.43-.92.43-1.61s-.14-1.23-.43-1.61c-.29-.38-.69-.56-1.22-.56Z"/>
          <path class="cls-1" d="M327.4,89.37c-.62,0-1.04.26-1.27.78-.12.28-.18.63-.18,1.06v3.76h-1.81v-6.93h1.75v1.01c.23-.36.45-.61.66-.77.37-.28.85-.42,1.42-.42.72,0,1.31.19,1.76.56.46.38.68,1,.68,1.87v4.68h-1.86v-4.22c0-.37-.05-.65-.15-.84-.18-.36-.52-.54-1.02-.54Z"/>
          <path class="cls-1" d="M337.54,88.34c.54.35.86.95.94,1.8h-1.82c-.03-.23-.09-.42-.2-.56-.2-.25-.54-.37-1.02-.37-.4,0-.68.06-.84.18s-.25.27-.25.43c0,.21.09.36.27.45.18.1.81.27,1.89.5.72.17,1.26.43,1.63.77.36.35.54.78.54,1.31,0,.69-.26,1.25-.77,1.69s-1.3.65-2.37.65-1.9-.23-2.42-.69-.78-1.05-.78-1.76h1.84c.04.32.12.55.25.69.23.24.64.36,1.25.36.36,0,.64-.05.85-.16s.32-.27.32-.48-.09-.36-.25-.47c-.17-.11-.8-.29-1.89-.55-.79-.2-1.34-.44-1.66-.73-.32-.29-.48-.7-.48-1.25,0-.64.25-1.19.75-1.65s1.21-.69,2.13-.69c.87,0,1.57.17,2.12.52Z"/>
          <path class="cls-1" d="M343.85,93.68v1.36l-.86.03c-.86.03-1.45-.12-1.76-.44-.2-.21-.31-.53-.31-.96v-4.28h-.97v-1.29h.97v-1.94h1.8v1.94h1.13v1.29h-1.13v3.67c0,.29.04.46.11.53.07.07.29.1.66.1.06,0,.11,0,.17,0s.12,0,.18,0Z"/>
          <path class="cls-1" d="M349.16,89.7c-.73,0-1.22.24-1.47.71-.14.27-.21.68-.21,1.24v3.32h-1.83v-6.95h1.73v1.21c.28-.46.52-.78.73-.95.34-.28.78-.43,1.33-.43.03,0,.06,0,.09,0,.02,0,.08,0,.16,0v1.86c-.11-.01-.22-.02-.31-.03s-.16,0-.22,0Z"/>
          <path class="cls-1" d="M355.85,93.99s-.06.08-.13.19c-.07.11-.15.2-.24.28-.29.25-.56.43-.83.52-.27.09-.58.14-.93.14-1.03,0-1.72-.37-2.08-1.11-.2-.41-.3-1.01-.3-1.8v-4.19h1.86v4.19c0,.4.05.69.14.89.17.35.49.53.98.53.62,0,1.05-.25,1.27-.75.12-.27.18-.63.18-1.08v-3.78h1.84v6.95h-1.77v-.98Z"/>
          <path class="cls-1" d="M366.03,90.52h-1.86c-.03-.26-.12-.49-.26-.7-.2-.28-.52-.42-.95-.42-.61,0-1.03.3-1.26.91-.12.32-.18.75-.18,1.29s.06.92.18,1.23c.22.58.62.87,1.22.87.42,0,.73-.11.91-.34s.29-.53.33-.89h1.85c-.04.55-.24,1.07-.6,1.57-.57.79-1.41,1.19-2.53,1.19s-1.94-.33-2.47-.99c-.53-.66-.79-1.52-.79-2.58,0-1.19.29-2.12.87-2.79s1.39-.99,2.41-.99c.87,0,1.58.2,2.14.59.55.39.88,1.08.98,2.07Z"/>
          <path class="cls-1" d="M371.12,93.68v1.36l-.86.03c-.86.03-1.45-.12-1.76-.44-.2-.21-.31-.53-.31-.96v-4.28h-.97v-1.29h.97v-1.94h1.8v1.94h1.13v1.29h-1.13v3.67c0,.29.04.46.11.53.07.07.29.1.66.1.06,0,.11,0,.18,0,.06,0,.12,0,.18,0Z"/>
          <path class="cls-1" d="M374.8,85.52v1.68h-1.84v-1.68h1.84ZM374.8,88.02v6.95h-1.84v-6.95h1.84Z"/>
          <path class="cls-1" d="M383.01,88.9c.59.73.88,1.6.88,2.61s-.29,1.89-.88,2.62-1.48,1.09-2.67,1.09-2.08-.36-2.67-1.09c-.59-.72-.88-1.6-.88-2.62s.29-1.87.88-2.61,1.48-1.1,2.67-1.1,2.08.37,2.67,1.1ZM380.33,89.34c-.53,0-.94.19-1.23.56-.29.38-.43.91-.43,1.61s.14,1.23.43,1.61.7.57,1.23.57.94-.19,1.22-.57c.29-.38.43-.92.43-1.61s-.14-1.23-.43-1.61c-.28-.38-.69-.56-1.22-.56Z"/>
          <path class="cls-1" d="M389.11,89.37c-.62,0-1.04.26-1.27.78-.12.28-.18.63-.18,1.06v3.76h-1.81v-6.93h1.75v1.01c.23-.36.45-.61.66-.77.37-.28.85-.42,1.42-.42.72,0,1.31.19,1.76.56.46.38.69,1,.69,1.87v4.68h-1.86v-4.22c0-.37-.05-.65-.15-.84-.18-.36-.52-.54-1.02-.54Z"/>
        </g>
        <g>
          <polygon class="cls-2" points="89.93 29.08 58.88 40.28 58.88 15.66 89.93 0 89.93 29.08"/>
          <polygon class="cls-1" points="41.6 60.34 120.46 72.83 120.46 48.59 41.6 25.83 41.6 60.34"/>
          <polygon class="cls-2" points="61.45 102.26 0 102.26 0 81.11 61.45 69.59 61.45 102.26"/>
          <polygon class="cls-1" points="162.93 83.07 162.93 102.26 61.45 102.26 61.45 69.59 162.93 83.07"/>
          <polygon class="cls-1" points="154.47 30.49 154.47 50.9 89.93 29.08 89.93 0 154.47 30.49"/>
          <polygon class="cls-2" points="8.46 42.23 8.46 69.34 41.6 60.34 41.6 25.83 8.46 42.23"/>
        </g>
      </g>
      <g>
        <rect class="cls-1" x="283.84" y="29.78" width="7.97" height="38.11"/>
        <polygon class="cls-1" points="193.73 36.16 208.21 36.16 208.21 67.9 216.18 67.9 216.18 36.16 230.67 36.16 230.67 29.78 193.73 29.78 193.73 36.16"/>
        <polygon class="cls-1" points="245.23 50.88 264.7 50.88 264.7 67.9 272.67 67.9 272.67 29.78 264.7 29.78 264.7 45.05 245.23 45.05 245.23 29.78 237.26 29.78 237.26 67.9 245.23 67.9 245.23 50.88"/>
        <path class="cls-1" d="M358.67,29.78h-7.97v38.11h7.97s-.04-35.3,0-38.11Z"/>
        <polygon class="cls-1" points="383.6 29.84 374.92 29.84 361.89 47.32 375.82 67.9 384.98 67.9 370.88 47.46 383.6 29.84"/>
        <path class="cls-1" d="M310.83,47.92c0-1.99.01-4.31.03-6.95l20.7,26.93h7.97c0-.54,0-1.16,0-1.84h0s0,0,0,0c0-1.43-.03-3.17-.06-5.23-.04-3.05-.06-7.35-.06-12.91,0-2.47.02-5.44.05-8.93.03-3.48.06-6.55.08-9.21h-7.97c.04,3.65.07,7.18.09,10.62.02,3.44.03,6.24.03,8.43,0,3.01,0,5.65-.02,7.91l-20.71-26.95h-7.97c0,.62.01,1.22.02,1.83h-.02s.02.03.02.03c.03,2.99.06,5.91.07,8.75.02,3.44.03,6.24.03,8.43,0,5.35-.02,9.52-.05,12.51-.03,2.99-.06,5.18-.08,6.56h7.97c0-1.67-.02-4.03-.06-7.07-.04-3.05-.06-7.35-.06-12.91Z"/>
        <polygon class="cls-1" points="414.8 29.84 405.77 29.84 390.15 67.9 398.76 67.9 410.29 39.83 421.81 67.9 430.43 67.9 414.8 29.84"/>
      </g>
    </g>
  </g>
</svg>