<svg width="213" height="46" viewBox="0 0 213 46" fill="none" xmlns="http://www.w3.org/2000/svg">
<g clip-path="url(#clip0_632_5251)">
<path d="M153.737 30.0276H150.166V13.0503H153.737V30.0276Z" fill="white"/>
<path d="M191.191 15.8578V13.0503H181.346H178.267H177.775V30.0276H178.267H181.346H191.191V27.2201H181.346V23.1407H189.983V20.54H181.346V15.8578H191.191Z" fill="white"/>
<path d="M100.806 13.0503V20.54H90.8504V13.0503H87.2842V30.0276H90.8504V23.1407H100.806V30.0276H104.376V13.0503H100.806Z" fill="white"/>
<path d="M124.349 15.0483C122.632 13.4641 120.137 12.5576 117.504 12.5576C114.871 12.5576 112.376 13.4641 110.659 15.0483C108.761 16.7997 107.876 18.8592 107.876 21.5215C107.876 22.9561 108.164 24.2763 108.734 25.4424C110.097 28.2368 112.345 29.4689 113.991 30.0058C115.075 30.3622 116.247 30.5427 117.477 30.5471H117.499H117.522C118.752 30.5471 119.924 30.3622 121.008 30.0058C122.654 29.4645 124.902 28.2368 126.265 25.4424C126.835 24.2763 127.123 22.9561 127.123 21.5215C127.123 18.8592 126.238 16.7997 124.34 15.0483H124.349ZM121.442 26.2565C120.336 27.3039 118.862 27.7263 117.504 27.7263C116.141 27.7263 114.668 27.3039 113.562 26.2565C112.292 25.0508 111.593 23.3786 111.593 21.5435C111.593 17.4026 114.637 15.1671 117.499 15.1671C120.362 15.1671 123.406 17.4026 123.406 21.5435C123.406 23.3786 122.707 25.0508 121.437 26.2565H121.442Z" fill="white"/>
<path d="M140.357 22.5071C142.149 22.1462 143.892 20.2364 143.892 17.7941C143.892 16.2011 142.552 13.1207 137.773 13.1207C136.844 13.1207 130.964 13.0503 130.765 13.0503V30.0276H134.335L134.322 15.4222C134.424 15.4222 137.251 15.3122 138.331 15.7038C138.915 15.915 139.379 16.3111 139.72 16.7468C140.061 17.1824 140.229 17.6885 140.229 18.2737C140.229 18.8898 140.118 19.3915 139.897 19.7743C139.676 20.1572 139.388 20.5048 139.039 20.8085C138.671 21.1121 138.211 21.3937 137.663 21.6446C137.114 21.8998 136.671 22.0626 136.331 22.1374L142.043 30.0232H146.392C144.87 28.153 140.357 22.5027 140.357 22.5027V22.5071Z" fill="white"/>
<path d="M162.219 13.0503H158.648V30.0276H162.219C162.219 30.0276 162.201 14.3044 162.219 13.0503Z" fill="white"/>
<path d="M174.006 30.0276L167.821 21.5389L173.387 13.0767H169.502L163.666 21.7457L169.9 30.0276H174.006Z" fill="white"/>
<path d="M212.995 29.2047C212.995 28.5666 212.982 27.7921 212.969 26.8768C212.951 25.5214 212.942 23.6028 212.942 21.1297C212.942 20.0296 212.951 18.705 212.964 17.156C212.978 15.607 212.991 14.2384 213 13.0547H209.429C209.447 14.6785 209.464 16.2539 209.473 17.7853C209.482 19.3167 209.487 20.5664 209.487 21.5389C209.487 22.8811 209.487 24.0561 209.478 25.0638L199.301 13.0591H195.73C195.73 13.3319 195.735 13.6048 195.739 13.8776H195.73L195.739 13.8908C195.753 15.2242 195.766 16.5223 195.775 17.7897C195.784 19.3211 195.788 20.5708 195.788 21.5433C195.788 23.9284 195.779 25.7811 195.766 27.1144C195.753 28.4434 195.739 29.4203 195.73 30.0364H199.301C199.301 29.2927 199.292 28.241 199.275 26.8856C199.257 25.5302 199.248 23.6116 199.248 21.1385C199.248 20.254 199.252 19.2199 199.261 18.0405L209.429 30.0364H213C213 29.7988 213 29.5215 213 29.2179L212.995 29.2047Z" fill="white"/>
<path d="M88.8945 41.7242V42.3227L88.514 42.3359C88.1335 42.3491 87.8769 42.2831 87.7353 42.1423C87.6468 42.0499 87.5981 41.9091 87.5981 41.7198V39.8364H87.1689V39.2687H87.5981V38.415H88.3946V39.2687H88.8945V39.8364H88.3946V41.4514C88.3946 41.579 88.4123 41.6538 88.4432 41.6846C88.4742 41.7154 88.5715 41.7287 88.7353 41.7287C88.7618 41.7287 88.7839 41.7287 88.8149 41.7287C88.8414 41.7287 88.868 41.7287 88.8945 41.7287V41.7242Z" fill="white"/>
<path d="M92.3276 41.3942C92.3055 41.5746 92.2126 41.7594 92.0444 41.9486C91.779 42.2435 91.4117 42.3931 90.9383 42.3931C90.5489 42.3931 90.2038 42.2655 89.9029 42.0191C89.6021 41.7726 89.4561 41.359 89.4561 40.7957C89.4561 40.2676 89.5888 39.8628 89.8587 39.5768C90.1286 39.2951 90.4781 39.1543 90.9073 39.1543C91.164 39.1543 91.394 39.2027 91.5976 39.2951C91.8011 39.3919 91.9737 39.5415 92.1064 39.7484C92.2259 39.9288 92.3055 40.14 92.3409 40.3777C92.363 40.5185 92.3719 40.7209 92.3674 40.9849H90.2658C90.279 41.293 90.3719 41.5086 90.5578 41.6318C90.6684 41.7066 90.8011 41.7462 90.9604 41.7462C91.1241 41.7462 91.2613 41.6978 91.3631 41.6054C91.4206 41.557 91.4692 41.4866 91.5135 41.3942H92.332H92.3276ZM91.5312 40.4569C91.5179 40.2456 91.4515 40.0872 91.3365 39.9772C91.2215 39.8672 91.0755 39.8144 90.9073 39.8144C90.7215 39.8144 90.5755 39.8716 90.4737 39.9904C90.3719 40.1048 90.3056 40.2632 90.279 40.4613H91.5268L91.5312 40.4569Z" fill="white"/>
<path d="M95.8586 40.3339H95.0356C95.0224 40.2194 94.9826 40.1182 94.9206 40.0258C94.8321 39.9026 94.6905 39.841 94.5003 39.841C94.2304 39.841 94.0445 39.973 93.9428 40.2415C93.8897 40.3823 93.8631 40.5715 93.8631 40.8091C93.8631 41.0468 93.8897 41.214 93.9428 41.3504C94.0401 41.6056 94.2171 41.7332 94.4826 41.7332C94.6684 41.7332 94.8056 41.6848 94.8852 41.5836C94.9649 41.4824 95.0135 41.3504 95.0312 41.192H95.8498C95.8321 41.434 95.7436 41.6628 95.5843 41.8829C95.3321 42.2305 94.9604 42.4065 94.4649 42.4065C93.9693 42.4065 93.6065 42.2613 93.372 41.9709C93.1375 41.6804 93.0225 41.302 93.0225 40.8355C93.0225 40.3119 93.1508 39.9026 93.4074 39.6078C93.664 39.3173 94.018 39.1721 94.4737 39.1721C94.8587 39.1721 95.1728 39.2601 95.4206 39.4318C95.6684 39.6034 95.81 39.907 95.8542 40.3427L95.8586 40.3339Z" fill="white"/>
<path d="M99.4778 40.4966V42.292H98.6548V40.435C98.6548 40.2722 98.6283 40.1357 98.5708 40.0345C98.4955 39.8937 98.3584 39.8233 98.1548 39.8233C97.9513 39.8233 97.7832 39.8937 97.6726 40.0345C97.562 40.1753 97.5089 40.3778 97.5089 40.6374V42.292H96.708V38.1731H97.5089V39.6341C97.6239 39.4581 97.7611 39.3348 97.9115 39.2644C98.0664 39.194 98.2256 39.1588 98.3938 39.1588C98.584 39.1588 98.7566 39.1896 98.9115 39.2556C99.0663 39.3216 99.1946 39.4229 99.292 39.5549C99.376 39.6693 99.4291 39.7881 99.4468 39.9069C99.4645 40.0257 99.4734 40.2238 99.4734 40.4966H99.4778Z" fill="white"/>
<path d="M101.965 39.8278C101.691 39.8278 101.505 39.9422 101.403 40.1711C101.35 40.2943 101.323 40.4483 101.323 40.6375V42.2921H100.522V39.2425H101.297V39.687C101.399 39.5286 101.496 39.4186 101.589 39.3482C101.752 39.2249 101.965 39.1633 102.217 39.1633C102.536 39.1633 102.797 39.2469 102.996 39.4098C103.199 39.577 103.301 39.8498 103.301 40.2327V42.2921H102.478V40.4351C102.478 40.2723 102.456 40.1491 102.412 40.0654C102.332 39.907 102.182 39.8278 101.96 39.8278H101.965Z" fill="white"/>
<path d="M106.894 39.6208C107.155 39.942 107.283 40.3249 107.283 40.7693C107.283 41.2138 107.155 41.601 106.894 41.9223C106.633 42.2435 106.239 42.4019 105.712 42.4019C105.186 42.4019 104.792 42.2435 104.531 41.9223C104.27 41.601 104.142 41.2182 104.142 40.7693C104.142 40.3205 104.27 39.9464 104.531 39.6208C104.792 39.2951 105.186 39.1367 105.712 39.1367C106.239 39.1367 106.633 39.2995 106.894 39.6208ZM105.708 39.81C105.473 39.81 105.292 39.8936 105.164 40.0564C105.035 40.2237 104.973 40.4569 104.973 40.7649C104.973 41.073 105.035 41.3062 105.164 41.4734C105.292 41.6406 105.473 41.7242 105.708 41.7242C105.942 41.7242 106.124 41.6406 106.248 41.4734C106.376 41.3062 106.438 41.0686 106.438 40.7649C106.438 40.4613 106.376 40.2237 106.248 40.0564C106.124 39.8892 105.942 39.81 105.708 39.81Z" fill="white"/>
<path d="M108.168 38.1599H108.973V42.292H108.168V38.1599Z" fill="white"/>
<path d="M112.606 39.6208C112.867 39.942 112.995 40.3249 112.995 40.7693C112.995 41.2138 112.867 41.601 112.606 41.9223C112.345 42.2435 111.951 42.4019 111.424 42.4019C110.898 42.4019 110.504 42.2435 110.243 41.9223C109.982 41.601 109.854 41.2182 109.854 40.7693C109.854 40.3205 109.982 39.9464 110.243 39.6208C110.504 39.2951 110.898 39.1367 111.424 39.1367C111.951 39.1367 112.345 39.2995 112.606 39.6208ZM111.42 39.81C111.185 39.81 111.004 39.8936 110.876 40.0564C110.747 40.2237 110.685 40.4569 110.685 40.7649C110.685 41.073 110.747 41.3062 110.876 41.4734C111.004 41.6406 111.185 41.7242 111.42 41.7242C111.654 41.7242 111.836 41.6406 111.96 41.4734C112.084 41.3062 112.15 41.0686 112.15 40.7649C112.15 40.4613 112.088 40.2237 111.96 40.0564C111.836 39.8892 111.654 39.81 111.42 39.81Z" fill="white"/>
<path d="M114.729 42.829C114.818 42.9038 114.959 42.939 115.167 42.939C115.455 42.939 115.65 42.8422 115.747 42.6486C115.809 42.5253 115.844 42.3185 115.844 42.0281V41.8301C115.769 41.9621 115.685 42.0589 115.597 42.1249C115.437 42.2481 115.229 42.3053 114.973 42.3053C114.579 42.3053 114.26 42.1689 114.026 41.8917C113.791 41.6144 113.672 41.2404 113.672 40.7695C113.672 40.2987 113.787 39.9334 114.013 39.6254C114.238 39.3174 114.561 39.1633 114.982 39.1633C115.136 39.1633 115.269 39.1853 115.384 39.2337C115.579 39.3129 115.738 39.4626 115.858 39.6782V39.2381H116.636V42.1381C116.636 42.5342 116.57 42.829 116.437 43.0314C116.207 43.3747 115.769 43.5463 115.119 43.5463C114.725 43.5463 114.406 43.4715 114.159 43.3174C113.911 43.1634 113.774 42.9346 113.747 42.631H114.623C114.645 42.7234 114.681 42.7938 114.734 42.8334L114.729 42.829ZM114.592 41.2492C114.703 41.5088 114.897 41.6364 115.181 41.6364C115.366 41.6364 115.526 41.566 115.659 41.4252C115.791 41.2844 115.853 41.06 115.853 40.7519C115.853 40.4615 115.791 40.2415 115.667 40.0918C115.543 39.9422 115.38 39.863 115.172 39.863C114.889 39.863 114.694 39.995 114.588 40.2591C114.53 40.3999 114.504 40.5715 114.504 40.7783C114.504 40.9544 114.535 41.1128 114.592 41.2536V41.2492Z" fill="white"/>
<path d="M118.925 41.4911L119.557 39.238H120.411L119.358 42.2436C119.155 42.8245 118.996 43.1809 118.876 43.3217C118.757 43.4626 118.522 43.533 118.164 43.533C118.093 43.533 118.035 43.533 117.991 43.533C117.947 43.533 117.885 43.5286 117.796 43.5242V42.8861H117.898C117.978 42.8949 118.053 42.8905 118.124 42.8861C118.195 42.8773 118.257 42.8553 118.305 42.8201C118.354 42.7893 118.394 42.7233 118.438 42.6221C118.482 42.5208 118.496 42.4592 118.487 42.4372L117.358 39.2468H118.252L118.925 41.4999V41.4911Z" fill="white"/>
<path d="M123.185 39.5682C123.398 39.2997 123.761 39.1633 124.278 39.1633C124.614 39.1633 124.915 39.2293 125.176 39.3614C125.437 39.4934 125.57 39.7442 125.57 40.1138V41.5176C125.57 41.6144 125.57 41.7333 125.575 41.8697C125.579 41.9753 125.597 42.0457 125.623 42.0809C125.65 42.1161 125.69 42.1469 125.743 42.1733V42.2921H124.867C124.84 42.2305 124.827 42.1733 124.818 42.1161C124.809 42.0633 124.8 42.0017 124.796 41.9313C124.685 42.0501 124.557 42.1513 124.411 42.2393C124.238 42.3361 124.044 42.3889 123.822 42.3889C123.544 42.3889 123.314 42.3097 123.132 42.1513C122.951 41.9929 122.862 41.7685 122.862 41.478C122.862 41.104 123.008 40.8311 123.3 40.6595C123.46 40.5671 123.694 40.5011 124.004 40.4659L124.278 40.4307C124.429 40.4131 124.535 40.3867 124.597 40.3603C124.712 40.3119 124.769 40.2371 124.769 40.1314C124.769 40.0082 124.725 39.9202 124.637 39.8718C124.548 39.8234 124.42 39.8014 124.252 39.8014C124.061 39.8014 123.929 39.8498 123.849 39.9422C123.791 40.0126 123.756 40.105 123.738 40.2239H122.964C122.982 39.9554 123.057 39.7354 123.19 39.5638L123.185 39.5682ZM123.783 41.7156C123.858 41.7773 123.951 41.8081 124.057 41.8081C124.23 41.8081 124.389 41.7597 124.535 41.6584C124.681 41.5572 124.756 41.3724 124.76 41.104V40.8047C124.712 40.8355 124.659 40.8619 124.606 40.8795C124.553 40.9015 124.482 40.9191 124.393 40.9368L124.212 40.972C124.044 41.0028 123.92 41.038 123.849 41.082C123.725 41.1568 123.663 41.2668 123.663 41.4208C123.663 41.5572 123.703 41.654 123.778 41.7156H123.783Z" fill="white"/>
<path d="M128.017 39.8278C127.742 39.8278 127.556 39.9422 127.455 40.1711C127.402 40.2943 127.375 40.4483 127.375 40.6375V42.2921H126.574V39.2425H127.349V39.687C127.45 39.5286 127.548 39.4186 127.641 39.3482C127.804 39.2249 128.017 39.1633 128.269 39.1633C128.587 39.1633 128.848 39.2469 129.048 39.4098C129.251 39.577 129.353 39.8498 129.353 40.2327V42.2921H128.53V40.4351C128.53 40.2723 128.508 40.1491 128.464 40.0654C128.384 39.907 128.233 39.8278 128.012 39.8278H128.017Z" fill="white"/>
<path d="M133.185 38.1643V42.292H132.406V41.8696C132.291 42.05 132.158 42.182 132.012 42.2656C131.866 42.3492 131.685 42.3888 131.464 42.3888C131.105 42.3888 130.804 42.2436 130.557 41.9576C130.313 41.6671 130.189 41.2975 130.189 40.8442C130.189 40.325 130.309 39.9113 130.552 39.6121C130.796 39.3128 131.119 39.1632 131.521 39.1632C131.707 39.1632 131.871 39.2028 132.017 39.2864C132.163 39.3701 132.278 39.4801 132.371 39.6253V38.1687H133.185V38.1643ZM131.021 40.7826C131.021 41.0643 131.079 41.2887 131.189 41.4603C131.3 41.6319 131.468 41.7156 131.698 41.7156C131.928 41.7156 132.101 41.6319 132.216 41.4647C132.331 41.2975 132.393 41.0775 132.393 40.809C132.393 40.435 132.3 40.1666 132.11 40.0081C131.995 39.9113 131.858 39.8629 131.703 39.8629C131.468 39.8629 131.296 39.9509 131.185 40.127C131.074 40.303 131.021 40.523 131.021 40.7826Z" fill="white"/>
<path d="M138.755 40.3339H137.932C137.919 40.2194 137.879 40.1182 137.817 40.0258C137.729 39.9026 137.587 39.841 137.397 39.841C137.127 39.841 136.941 39.973 136.839 40.2415C136.786 40.3823 136.76 40.5715 136.76 40.8091C136.76 41.0468 136.786 41.214 136.839 41.3504C136.937 41.6056 137.114 41.7332 137.379 41.7332C137.565 41.7332 137.702 41.6848 137.782 41.5836C137.861 41.4824 137.91 41.3504 137.928 41.192H138.746C138.729 41.434 138.64 41.6628 138.481 41.8829C138.229 42.2305 137.857 42.4065 137.361 42.4065C136.866 42.4065 136.503 42.2613 136.268 41.9709C136.034 41.6804 135.919 41.302 135.919 40.8355C135.919 40.3119 136.047 39.9026 136.304 39.6078C136.561 39.3173 136.919 39.1721 137.37 39.1721C137.755 39.1721 138.069 39.2601 138.317 39.4318C138.565 39.6034 138.706 39.907 138.751 40.3427L138.755 40.3339Z" fill="white"/>
<path d="M142.162 39.6208C142.423 39.942 142.552 40.3249 142.552 40.7693C142.552 41.2138 142.423 41.601 142.162 41.9223C141.901 42.2435 141.507 42.4019 140.981 42.4019C140.454 42.4019 140.061 42.2435 139.8 41.9223C139.538 41.601 139.41 41.2182 139.41 40.7693C139.41 40.3205 139.538 39.9464 139.8 39.6208C140.061 39.2951 140.454 39.1367 140.981 39.1367C141.507 39.1367 141.901 39.2995 142.162 39.6208ZM140.976 39.81C140.742 39.81 140.561 39.8936 140.432 40.0564C140.304 40.2237 140.242 40.4569 140.242 40.7649C140.242 41.073 140.304 41.3062 140.432 41.4734C140.561 41.6406 140.742 41.7242 140.976 41.7242C141.211 41.7242 141.392 41.6406 141.516 41.4734C141.64 41.3062 141.707 41.0686 141.707 40.7649C141.707 40.4613 141.645 40.2237 141.516 40.0564C141.388 39.8892 141.211 39.81 140.976 39.81Z" fill="white"/>
<path d="M144.861 39.8278C144.587 39.8278 144.401 39.9422 144.299 40.1711C144.246 40.2943 144.22 40.4483 144.22 40.6375V42.2921H143.419V39.2425H144.193V39.687C144.295 39.5286 144.392 39.4186 144.485 39.3482C144.649 39.2249 144.861 39.1633 145.114 39.1633C145.432 39.1633 145.693 39.2469 145.892 39.4098C146.096 39.577 146.193 39.8498 146.193 40.2327V42.2921H145.37V40.4351C145.37 40.2723 145.348 40.1491 145.304 40.0654C145.224 39.907 145.074 39.8278 144.853 39.8278H144.861Z" fill="white"/>
<path d="M149.348 39.3743C149.587 39.5284 149.728 39.7924 149.764 40.1664H148.958C148.945 40.0652 148.918 39.9816 148.87 39.92C148.781 39.81 148.631 39.7572 148.419 39.7572C148.242 39.7572 148.118 39.7836 148.047 39.8364C147.976 39.8892 147.936 39.9552 147.936 40.0256C147.936 40.118 147.976 40.184 148.056 40.2236C148.135 40.2677 148.414 40.3425 148.892 40.4437C149.211 40.5185 149.449 40.6329 149.613 40.7825C149.772 40.9365 149.852 41.1258 149.852 41.359C149.852 41.6626 149.737 41.9091 149.511 42.1027C149.286 42.2963 148.936 42.3887 148.463 42.3887C147.989 42.3887 147.622 42.2875 147.392 42.0851C147.162 41.8827 147.047 41.623 147.047 41.3106H147.861C147.879 41.4514 147.914 41.5526 147.972 41.6142C148.073 41.7198 148.255 41.7726 148.525 41.7726C148.684 41.7726 148.808 41.7506 148.901 41.7022C148.994 41.6538 149.042 41.5834 149.042 41.491C149.042 41.3986 149.003 41.3326 148.932 41.2842C148.857 41.2358 148.578 41.1566 148.096 41.0421C147.746 40.9541 147.503 40.8485 147.361 40.7209C147.219 40.5933 147.149 40.4129 147.149 40.1708C147.149 39.8892 147.259 39.6472 147.48 39.4448C147.702 39.2423 148.016 39.1411 148.423 39.1411C148.808 39.1411 149.118 39.2159 149.361 39.3699L149.348 39.3743Z" fill="white"/>
<path d="M152.14 41.7242V42.3227L151.759 42.3359C151.379 42.3491 151.118 42.2831 150.98 42.1423C150.892 42.0499 150.843 41.9091 150.843 41.7198V39.8364H150.414V39.2687H150.843V38.415H151.64V39.2687H152.14V39.8364H151.64V41.4514C151.64 41.579 151.657 41.6538 151.688 41.6846C151.719 41.7154 151.817 41.7287 151.98 41.7287C152.007 41.7287 152.029 41.7287 152.056 41.7287C152.082 41.7287 152.109 41.7287 152.135 41.7287L152.14 41.7242Z" fill="white"/>
<path d="M154.49 39.9728C154.167 39.9728 153.95 40.0784 153.839 40.2852C153.777 40.404 153.746 40.5845 153.746 40.8309V42.2919H152.937V39.2335H153.702V39.766C153.826 39.5635 153.932 39.4227 154.025 39.3479C154.175 39.2247 154.37 39.1587 154.613 39.1587C154.627 39.1587 154.64 39.1587 154.653 39.1587C154.662 39.1587 154.689 39.1587 154.724 39.1587V39.9772C154.675 39.9728 154.627 39.9684 154.587 39.964C154.547 39.9596 154.516 39.964 154.49 39.964V39.9728Z" fill="white"/>
<path d="M157.45 41.8608C157.45 41.8608 157.423 41.896 157.392 41.9444C157.361 41.9928 157.326 42.0324 157.286 42.0676C157.158 42.1776 157.038 42.2568 156.919 42.2964C156.799 42.336 156.662 42.358 156.507 42.358C156.051 42.358 155.746 42.1952 155.587 41.8696C155.498 41.6892 155.454 41.4251 155.454 41.0775V39.2336H156.277V41.0775C156.277 41.2535 156.299 41.3811 156.339 41.4691C156.414 41.6231 156.556 41.7023 156.773 41.7023C157.047 41.7023 157.237 41.5923 157.335 41.3723C157.388 41.2535 157.414 41.0951 157.414 40.8971V39.2336H158.228V42.292H157.445V41.8608H157.45Z" fill="white"/>
<path d="M161.953 40.3339H161.13C161.117 40.2194 161.077 40.1182 161.015 40.0258C160.927 39.9026 160.785 39.841 160.595 39.841C160.325 39.841 160.139 39.973 160.038 40.2415C159.984 40.3823 159.958 40.5715 159.958 40.8091C159.958 41.0468 159.984 41.214 160.038 41.3504C160.135 41.6056 160.312 41.7332 160.577 41.7332C160.763 41.7332 160.9 41.6848 160.98 41.5836C161.06 41.4824 161.108 41.3504 161.126 41.192H161.945C161.927 41.434 161.838 41.6628 161.679 41.8829C161.427 42.2305 161.055 42.4065 160.56 42.4065C160.064 42.4065 159.701 42.2613 159.467 41.9709C159.232 41.6804 159.117 41.302 159.117 40.8355C159.117 40.3119 159.245 39.9026 159.502 39.6078C159.759 39.3173 160.117 39.1721 160.568 39.1721C160.953 39.1721 161.268 39.2601 161.515 39.4318C161.759 39.6034 161.905 39.907 161.949 40.3427L161.953 40.3339Z" fill="white"/>
<path d="M164.206 41.7242V42.3227L163.826 42.3359C163.445 42.3491 163.184 42.2831 163.047 42.1423C162.958 42.0499 162.91 41.9091 162.91 41.7198V39.8364H162.48V39.2687H162.91V38.415H163.706V39.2687H164.206V39.8364H163.706V41.4514C163.706 41.579 163.724 41.6538 163.755 41.6846C163.786 41.7154 163.883 41.7287 164.047 41.7287C164.073 41.7287 164.095 41.7287 164.126 41.7287C164.153 41.7287 164.18 41.7287 164.206 41.7287V41.7242Z" fill="white"/>
<path d="M165.834 38.1335V38.8728H165.02V38.1335H165.834ZM165.834 39.2337V42.2921H165.02V39.2337H165.834Z" fill="white"/>
<path d="M169.466 39.6208C169.727 39.942 169.855 40.3249 169.855 40.7693C169.855 41.2138 169.727 41.601 169.466 41.9223C169.205 42.2435 168.811 42.4019 168.285 42.4019C167.758 42.4019 167.364 42.2435 167.103 41.9223C166.842 41.601 166.714 41.2182 166.714 40.7693C166.714 40.3205 166.842 39.9464 167.103 39.6208C167.364 39.2951 167.758 39.1367 168.285 39.1367C168.811 39.1367 169.205 39.2995 169.466 39.6208ZM168.28 39.81C168.046 39.81 167.864 39.8936 167.736 40.0564C167.608 40.2237 167.546 40.4569 167.546 40.7649C167.546 41.073 167.608 41.3062 167.736 41.4734C167.864 41.6406 168.046 41.7242 168.28 41.7242C168.515 41.7242 168.696 41.6406 168.82 41.4734C168.948 41.3062 169.01 41.0686 169.01 40.7649C169.01 40.4613 168.948 40.2237 168.82 40.0564C168.696 39.8892 168.515 39.81 168.28 39.81Z" fill="white"/>
<path d="M172.165 39.8278C171.891 39.8278 171.705 39.9422 171.603 40.1711C171.55 40.2943 171.524 40.4483 171.524 40.6375V42.2921H170.723V39.2425H171.497V39.687C171.599 39.5286 171.696 39.4186 171.789 39.3482C171.953 39.2249 172.165 39.1633 172.417 39.1633C172.736 39.1633 172.997 39.2469 173.196 39.4098C173.4 39.577 173.501 39.8498 173.501 40.2327V42.2921H172.678V40.4351C172.678 40.2723 172.656 40.1491 172.612 40.0654C172.532 39.907 172.382 39.8278 172.161 39.8278H172.165Z" fill="white"/>
<path d="M39.7901 13.2968L26.0518 18.2254V7.39126L39.7901 0.5V13.2968Z" fill="white"/>
<path d="M18.4062 27.053L53.2986 32.5493V21.8823L18.4062 11.8667V27.053Z" fill="#DCDDDD"/>
<path d="M27.1891 45.4999H0V36.1927L27.1891 31.1233V45.4999Z" fill="white"/>
<path d="M72.0902 37.0552V45.4999H27.1895V31.1233L72.0902 37.0552Z" fill="#DCDDDD"/>
<path d="M68.3464 13.9173V22.8988L39.79 13.2968V0.5L68.3464 13.9173Z" fill="#DCDDDD"/>
<path d="M3.74316 19.0836V31.0135L18.4063 27.053V11.8667L3.74316 19.0836Z" fill="white"/>
</g>
<defs>
<clipPath id="clip0_632_5251">
<rect width="213" height="45" fill="white" transform="translate(0 0.5)"/>
</clipPath>
</defs>
</svg>
