<svg width="213" height="45" viewBox="0 0 213 45" fill="none" xmlns="http://www.w3.org/2000/svg">
<g clip-path="url(#clip0_662_50811)">
<path d="M153.737 29.5276H150.166V12.5503H153.737V29.5276Z" fill="#727171"/>
<path d="M191.191 15.3578V12.5503H181.347H178.267H177.776V29.5276H178.267H181.347H191.191V26.7201H181.347V22.6407H189.983V20.04H181.347V15.3578H191.191Z" fill="#727171"/>
<path d="M100.805 12.5503V20.04H90.8502V12.5503H87.2839V29.5276H90.8502V22.6407H100.805V29.5276H104.376V12.5503H100.805Z" fill="#727171"/>
<path d="M124.349 14.5483C122.632 12.9641 120.137 12.0576 117.504 12.0576C114.871 12.0576 112.376 12.9641 110.659 14.5483C108.761 16.2997 107.876 18.3592 107.876 21.0215C107.876 22.4561 108.164 23.7763 108.734 24.9424C110.097 27.7368 112.345 28.9689 113.991 29.5058C115.075 29.8622 116.247 30.0427 117.477 30.0471H117.499H117.522C118.752 30.0471 119.924 29.8622 121.008 29.5058C122.654 28.9645 124.902 27.7368 126.265 24.9424C126.835 23.7763 127.123 22.4561 127.123 21.0215C127.123 18.3592 126.238 16.2997 124.34 14.5483H124.349ZM121.442 25.7565C120.336 26.8039 118.862 27.2263 117.504 27.2263C116.141 27.2263 114.668 26.8039 113.562 25.7565C112.292 24.5508 111.593 22.8786 111.593 21.0435C111.593 16.9026 114.637 14.6671 117.499 14.6671C120.362 14.6671 123.406 16.9026 123.406 21.0435C123.406 22.8786 122.707 24.5508 121.437 25.7565H121.442Z" fill="#727171"/>
<path d="M140.357 22.0071C142.149 21.6462 143.892 19.7364 143.892 17.2941C143.892 15.7011 142.552 12.6207 137.773 12.6207C136.844 12.6207 130.964 12.5503 130.764 12.5503V29.5276H134.335L134.322 14.9222C134.424 14.9222 137.251 14.8122 138.33 15.2038C138.915 15.415 139.379 15.8111 139.72 16.2468C140.06 16.6824 140.229 17.1885 140.229 17.7737C140.229 18.3898 140.118 18.8915 139.897 19.2743C139.676 19.6572 139.388 20.0048 139.038 20.3085C138.671 20.6121 138.211 20.8937 137.662 21.1446C137.114 21.3998 136.671 21.5626 136.331 21.6374L142.043 29.5232H146.392C144.87 27.653 140.357 22.0027 140.357 22.0027V22.0071Z" fill="#727171"/>
<path d="M162.219 12.5503H158.648V29.5276H162.219C162.219 29.5276 162.201 13.8044 162.219 12.5503Z" fill="#727171"/>
<path d="M174.006 29.5276L167.82 21.0389L173.387 12.5767H169.502L163.666 21.2457L169.9 29.5276H174.006Z" fill="#727171"/>
<path d="M212.995 28.7047C212.995 28.0666 212.982 27.2921 212.969 26.3768C212.951 25.0214 212.942 23.1028 212.942 20.6297C212.942 19.5296 212.951 18.205 212.965 16.656C212.978 15.107 212.991 13.7384 213 12.5547H209.429C209.447 14.1785 209.465 15.7539 209.474 17.2853C209.482 18.8167 209.487 20.0664 209.487 21.0389C209.487 22.3811 209.487 23.5561 209.478 24.5638L199.301 12.5591H195.731C195.731 12.8319 195.735 13.1048 195.74 13.3776H195.731L195.74 13.3908C195.753 14.7242 195.766 16.0223 195.775 17.2897C195.784 18.8211 195.788 20.0708 195.788 21.0433C195.788 23.4284 195.779 25.2811 195.766 26.6144C195.753 27.9434 195.74 28.9203 195.731 29.5364H199.301C199.301 28.7927 199.293 27.741 199.275 26.3856C199.257 25.0302 199.248 23.1116 199.248 20.6385C199.248 19.754 199.253 18.7199 199.262 17.5405L209.429 29.5364H213C213 29.2988 213 29.0215 213 28.7179L212.995 28.7047Z" fill="#727171"/>
<path d="M88.8945 41.2242V41.8227L88.514 41.8359C88.1335 41.8491 87.8769 41.7831 87.7353 41.6423C87.6468 41.5499 87.5981 41.4091 87.5981 41.2198V39.3364H87.1689V38.7687H87.5981V37.915H88.3946V38.7687H88.8945V39.3364H88.3946V40.9514C88.3946 41.079 88.4123 41.1538 88.4432 41.1846C88.4742 41.2154 88.5715 41.2287 88.7353 41.2287C88.7618 41.2287 88.7839 41.2287 88.8149 41.2287C88.8414 41.2287 88.868 41.2287 88.8945 41.2287V41.2242Z" fill="#727171"/>
<path d="M92.3281 40.8942C92.306 41.0746 92.2131 41.2594 92.0449 41.4486C91.7795 41.7435 91.4122 41.8931 90.9388 41.8931C90.5494 41.8931 90.2043 41.7655 89.9034 41.5191C89.6026 41.2726 89.4565 40.859 89.4565 40.2957C89.4565 39.7676 89.5893 39.3628 89.8592 39.0768C90.1291 38.7951 90.4786 38.6543 90.9078 38.6543C91.1644 38.6543 91.3945 38.7027 91.5981 38.7951C91.8016 38.8919 91.9741 39.0415 92.1069 39.2484C92.2263 39.4288 92.306 39.64 92.3414 39.8777C92.3635 40.0185 92.3724 40.2209 92.3679 40.4849H90.2662C90.2795 40.793 90.3724 41.0086 90.5583 41.1318C90.6689 41.2066 90.8016 41.2462 90.9609 41.2462C91.1246 41.2462 91.2618 41.1978 91.3635 41.1054C91.4211 41.057 91.4697 40.9866 91.514 40.8942H92.3325H92.3281ZM91.5317 39.9569C91.5184 39.7456 91.452 39.5872 91.337 39.4772C91.222 39.3672 91.076 39.3144 90.9078 39.3144C90.722 39.3144 90.576 39.3716 90.4742 39.4904C90.3724 39.6048 90.3061 39.7632 90.2795 39.9613H91.5273L91.5317 39.9569Z" fill="#727171"/>
<path d="M95.8589 39.8339H95.0359C95.0226 39.7194 94.9828 39.6182 94.9209 39.5258C94.8324 39.4026 94.6908 39.341 94.5005 39.341C94.2306 39.341 94.0448 39.473 93.943 39.7415C93.8899 39.8823 93.8634 40.0715 93.8634 40.3091C93.8634 40.5468 93.8899 40.714 93.943 40.8504C94.0404 41.1056 94.2173 41.2332 94.4828 41.2332C94.6686 41.2332 94.8058 41.1848 94.8855 41.0836C94.9651 40.9824 95.0138 40.8504 95.0315 40.692H95.85C95.8323 40.934 95.7438 41.1628 95.5845 41.3829C95.3323 41.7305 94.9607 41.9065 94.4651 41.9065C93.9696 41.9065 93.6067 41.7613 93.3722 41.4709C93.1377 41.1804 93.0227 40.802 93.0227 40.3355C93.0227 39.8119 93.151 39.4026 93.4076 39.1078C93.6643 38.8173 94.0182 38.6721 94.474 38.6721C94.8589 38.6721 95.1731 38.7601 95.4208 38.9318C95.6686 39.1034 95.8102 39.407 95.8544 39.8427L95.8589 39.8339Z" fill="#727171"/>
<path d="M99.4783 39.9966V41.792H98.6553V39.935C98.6553 39.7722 98.6288 39.6357 98.5712 39.5345C98.496 39.3937 98.3589 39.3233 98.1553 39.3233C97.9518 39.3233 97.7837 39.3937 97.6731 39.5345C97.5624 39.6753 97.5093 39.8778 97.5093 40.1374V41.792H96.7085V37.6731H97.5093V39.1341C97.6244 38.9581 97.7615 38.8348 97.912 38.7644C98.0668 38.694 98.2261 38.6588 98.3943 38.6588C98.5845 38.6588 98.7571 38.6896 98.9119 38.7556C99.0668 38.8216 99.1951 38.9229 99.2925 39.0549C99.3765 39.1693 99.4296 39.2881 99.4473 39.4069C99.465 39.5257 99.4739 39.7238 99.4739 39.9966H99.4783Z" fill="#727171"/>
<path d="M101.965 39.3278C101.691 39.3278 101.505 39.4422 101.403 39.6711C101.35 39.7943 101.323 39.9483 101.323 40.1375V41.7921H100.522V38.7425H101.297V39.187C101.399 39.0286 101.496 38.9186 101.589 38.8482C101.753 38.7249 101.965 38.6633 102.217 38.6633C102.536 38.6633 102.797 38.7469 102.996 38.9098C103.199 39.077 103.301 39.3498 103.301 39.7327V41.7921H102.478V39.9351C102.478 39.7723 102.456 39.6491 102.412 39.5654C102.332 39.407 102.182 39.3278 101.96 39.3278H101.965Z" fill="#727171"/>
<path d="M106.894 39.1208C107.155 39.442 107.283 39.8249 107.283 40.2693C107.283 40.7138 107.155 41.101 106.894 41.4223C106.633 41.7435 106.239 41.9019 105.712 41.9019C105.186 41.9019 104.792 41.7435 104.531 41.4223C104.27 41.101 104.142 40.7182 104.142 40.2693C104.142 39.8205 104.27 39.4464 104.531 39.1208C104.792 38.7951 105.186 38.6367 105.712 38.6367C106.239 38.6367 106.633 38.7995 106.894 39.1208ZM105.708 39.31C105.473 39.31 105.292 39.3936 105.164 39.5564C105.035 39.7237 104.973 39.9569 104.973 40.2649C104.973 40.573 105.035 40.8062 105.164 40.9734C105.292 41.1406 105.473 41.2242 105.708 41.2242C105.942 41.2242 106.124 41.1406 106.248 40.9734C106.376 40.8062 106.438 40.5686 106.438 40.2649C106.438 39.9613 106.376 39.7237 106.248 39.5564C106.124 39.3892 105.942 39.31 105.708 39.31Z" fill="#727171"/>
<path d="M108.168 37.6599H108.973V41.792H108.168V37.6599Z" fill="#727171"/>
<path d="M112.606 39.1208C112.867 39.442 112.995 39.8249 112.995 40.2693C112.995 40.7138 112.867 41.101 112.606 41.4223C112.345 41.7435 111.951 41.9019 111.424 41.9019C110.898 41.9019 110.504 41.7435 110.243 41.4223C109.982 41.101 109.854 40.7182 109.854 40.2693C109.854 39.8205 109.982 39.4464 110.243 39.1208C110.504 38.7951 110.898 38.6367 111.424 38.6367C111.951 38.6367 112.345 38.7995 112.606 39.1208ZM111.42 39.31C111.186 39.31 111.004 39.3936 110.876 39.5564C110.748 39.7237 110.686 39.9569 110.686 40.2649C110.686 40.573 110.748 40.8062 110.876 40.9734C111.004 41.1406 111.186 41.2242 111.42 41.2242C111.655 41.2242 111.836 41.1406 111.96 40.9734C112.084 40.8062 112.15 40.5686 112.15 40.2649C112.15 39.9613 112.088 39.7237 111.96 39.5564C111.836 39.3892 111.655 39.31 111.42 39.31Z" fill="#727171"/>
<path d="M114.73 42.329C114.818 42.4038 114.96 42.439 115.168 42.439C115.455 42.439 115.65 42.3422 115.747 42.1486C115.809 42.0253 115.845 41.8185 115.845 41.5281V41.3301C115.77 41.4621 115.686 41.5589 115.597 41.6249C115.438 41.7481 115.23 41.8053 114.973 41.8053C114.579 41.8053 114.261 41.6689 114.026 41.3917C113.792 41.1144 113.672 40.7404 113.672 40.2695C113.672 39.7987 113.787 39.4334 114.013 39.1254C114.239 38.8174 114.562 38.6633 114.982 38.6633C115.137 38.6633 115.27 38.6853 115.385 38.7337C115.579 38.8129 115.739 38.9626 115.858 39.1782V38.7381H116.637V41.6381C116.637 42.0342 116.57 42.329 116.438 42.5314C116.208 42.8747 115.77 43.0463 115.119 43.0463C114.725 43.0463 114.407 42.9715 114.159 42.8174C113.911 42.6634 113.774 42.4346 113.748 42.131H114.624C114.646 42.2234 114.681 42.2938 114.734 42.3334L114.73 42.329ZM114.593 40.7492C114.703 41.0088 114.898 41.1364 115.181 41.1364C115.367 41.1364 115.526 41.066 115.659 40.9252C115.792 40.7844 115.854 40.56 115.854 40.2519C115.854 39.9615 115.792 39.7415 115.668 39.5918C115.544 39.4422 115.38 39.363 115.172 39.363C114.889 39.363 114.694 39.495 114.588 39.7591C114.531 39.8999 114.504 40.0715 114.504 40.2783C114.504 40.4544 114.535 40.6128 114.593 40.7536V40.7492Z" fill="#727171"/>
<path d="M118.924 40.9911L119.557 38.738H120.411L119.358 41.7436C119.154 42.3245 118.995 42.6809 118.876 42.8217C118.756 42.9626 118.522 43.033 118.163 43.033C118.092 43.033 118.035 43.033 117.991 43.033C117.946 43.033 117.884 43.0286 117.796 43.0242V42.3861H117.898C117.977 42.3949 118.053 42.3905 118.123 42.3861C118.194 42.3773 118.256 42.3553 118.305 42.3201C118.353 42.2893 118.393 42.2233 118.438 42.1221C118.482 42.0208 118.495 41.9592 118.486 41.9372L117.358 38.7468H118.252L118.924 40.9999V40.9911Z" fill="#727171"/>
<path d="M123.185 39.0682C123.397 38.7997 123.76 38.6633 124.278 38.6633C124.614 38.6633 124.915 38.7293 125.176 38.8614C125.437 38.9934 125.57 39.2442 125.57 39.6138V41.0176C125.57 41.1144 125.57 41.2333 125.574 41.3697C125.579 41.4753 125.596 41.5457 125.623 41.5809C125.65 41.6161 125.689 41.6469 125.742 41.6733V41.7921H124.866C124.84 41.7305 124.827 41.6733 124.818 41.6161C124.809 41.5633 124.8 41.5017 124.796 41.4313C124.685 41.5501 124.557 41.6513 124.411 41.7393C124.238 41.8361 124.043 41.8889 123.822 41.8889C123.543 41.8889 123.313 41.8097 123.132 41.6513C122.951 41.4929 122.862 41.2685 122.862 40.978C122.862 40.604 123.008 40.3311 123.3 40.1595C123.459 40.0671 123.694 40.0011 124.004 39.9659L124.278 39.9307C124.428 39.9131 124.535 39.8867 124.597 39.8603C124.712 39.8119 124.769 39.7371 124.769 39.6314C124.769 39.5082 124.725 39.4202 124.636 39.3718C124.548 39.3234 124.42 39.3014 124.251 39.3014C124.061 39.3014 123.928 39.3498 123.849 39.4422C123.791 39.5126 123.756 39.605 123.738 39.7239H122.964C122.982 39.4554 123.057 39.2354 123.189 39.0638L123.185 39.0682ZM123.782 41.2156C123.858 41.2773 123.951 41.3081 124.057 41.3081C124.229 41.3081 124.389 41.2597 124.535 41.1584C124.681 41.0572 124.756 40.8724 124.76 40.604V40.3047C124.712 40.3355 124.658 40.3619 124.605 40.3795C124.552 40.4015 124.481 40.4191 124.393 40.4368L124.212 40.472C124.043 40.5028 123.92 40.538 123.849 40.582C123.725 40.6568 123.663 40.7668 123.663 40.9208C123.663 41.0572 123.703 41.154 123.778 41.2156H123.782Z" fill="#727171"/>
<path d="M128.017 39.3278C127.743 39.3278 127.557 39.4422 127.455 39.6711C127.402 39.7943 127.375 39.9483 127.375 40.1375V41.7921H126.574V38.7425H127.349V39.187C127.451 39.0286 127.548 38.9186 127.641 38.8482C127.805 38.7249 128.017 38.6633 128.269 38.6633C128.588 38.6633 128.849 38.7469 129.048 38.9098C129.251 39.077 129.353 39.3498 129.353 39.7327V41.7921H128.53V39.9351C128.53 39.7723 128.508 39.6491 128.464 39.5654C128.384 39.407 128.234 39.3278 128.012 39.3278H128.017Z" fill="#727171"/>
<path d="M133.185 37.6643V41.792H132.406V41.3696C132.291 41.55 132.158 41.682 132.012 41.7656C131.866 41.8492 131.685 41.8888 131.463 41.8888C131.105 41.8888 130.804 41.7436 130.556 41.4576C130.313 41.1671 130.189 40.7975 130.189 40.3442C130.189 39.825 130.309 39.4113 130.552 39.1121C130.795 38.8128 131.118 38.6632 131.521 38.6632C131.707 38.6632 131.871 38.7028 132.017 38.7864C132.163 38.8701 132.278 38.9801 132.371 39.1253V37.6687H133.185V37.6643ZM131.021 40.2826C131.021 40.5643 131.079 40.7887 131.189 40.9603C131.3 41.1319 131.468 41.2156 131.698 41.2156C131.928 41.2156 132.101 41.1319 132.216 40.9647C132.331 40.7975 132.393 40.5775 132.393 40.309C132.393 39.935 132.3 39.6666 132.109 39.5081C131.994 39.4113 131.857 39.3629 131.702 39.3629C131.468 39.3629 131.295 39.4509 131.185 39.627C131.074 39.803 131.021 40.023 131.021 40.2826Z" fill="#727171"/>
<path d="M138.755 39.8339H137.932C137.919 39.7194 137.879 39.6182 137.817 39.5258C137.729 39.4026 137.587 39.341 137.397 39.341C137.127 39.341 136.941 39.473 136.839 39.7415C136.786 39.8823 136.76 40.0715 136.76 40.3091C136.76 40.5468 136.786 40.714 136.839 40.8504C136.937 41.1056 137.114 41.2332 137.379 41.2332C137.565 41.2332 137.702 41.1848 137.782 41.0836C137.862 40.9824 137.91 40.8504 137.928 40.692H138.746C138.729 40.934 138.64 41.1628 138.481 41.3829C138.229 41.7305 137.857 41.9065 137.362 41.9065C136.866 41.9065 136.503 41.7613 136.269 41.4709C136.034 41.1804 135.919 40.802 135.919 40.3355C135.919 39.8119 136.048 39.4026 136.304 39.1078C136.561 38.8173 136.919 38.6721 137.37 38.6721C137.755 38.6721 138.07 38.7601 138.317 38.9318C138.565 39.1034 138.707 39.407 138.751 39.8427L138.755 39.8339Z" fill="#727171"/>
<path d="M142.162 39.1208C142.423 39.442 142.552 39.8249 142.552 40.2693C142.552 40.7138 142.423 41.101 142.162 41.4223C141.901 41.7435 141.507 41.9019 140.981 41.9019C140.454 41.9019 140.061 41.7435 139.8 41.4223C139.538 41.101 139.41 40.7182 139.41 40.2693C139.41 39.8205 139.538 39.4464 139.8 39.1208C140.061 38.7951 140.454 38.6367 140.981 38.6367C141.507 38.6367 141.901 38.7995 142.162 39.1208ZM140.976 39.31C140.742 39.31 140.561 39.3936 140.432 39.5564C140.304 39.7237 140.242 39.9569 140.242 40.2649C140.242 40.573 140.304 40.8062 140.432 40.9734C140.561 41.1406 140.742 41.2242 140.976 41.2242C141.211 41.2242 141.392 41.1406 141.516 40.9734C141.64 40.8062 141.707 40.5686 141.707 40.2649C141.707 39.9613 141.645 39.7237 141.516 39.5564C141.388 39.3892 141.211 39.31 140.976 39.31Z" fill="#727171"/>
<path d="M144.861 39.3278C144.587 39.3278 144.401 39.4422 144.299 39.6711C144.246 39.7943 144.22 39.9483 144.22 40.1375V41.7921H143.419V38.7425H144.193V39.187C144.295 39.0286 144.392 38.9186 144.485 38.8482C144.649 38.7249 144.861 38.6633 145.114 38.6633C145.432 38.6633 145.693 38.7469 145.892 38.9098C146.096 39.077 146.193 39.3498 146.193 39.7327V41.7921H145.37V39.9351C145.37 39.7723 145.348 39.6491 145.304 39.5654C145.224 39.407 145.074 39.3278 144.853 39.3278H144.861Z" fill="#727171"/>
<path d="M149.348 38.8743C149.587 39.0284 149.728 39.2924 149.764 39.6664H148.958C148.945 39.5652 148.918 39.4816 148.87 39.42C148.781 39.31 148.631 39.2572 148.419 39.2572C148.242 39.2572 148.118 39.2836 148.047 39.3364C147.976 39.3892 147.936 39.4552 147.936 39.5256C147.936 39.618 147.976 39.684 148.056 39.7236C148.135 39.7677 148.414 39.8425 148.892 39.9437C149.211 40.0185 149.449 40.1329 149.613 40.2825C149.772 40.4365 149.852 40.6258 149.852 40.859C149.852 41.1626 149.737 41.4091 149.511 41.6027C149.286 41.7963 148.936 41.8887 148.463 41.8887C147.989 41.8887 147.622 41.7875 147.392 41.5851C147.162 41.3827 147.047 41.123 147.047 40.8106H147.861C147.879 40.9514 147.914 41.0526 147.972 41.1142C148.073 41.2198 148.255 41.2726 148.525 41.2726C148.684 41.2726 148.808 41.2506 148.901 41.2022C148.994 41.1538 149.042 41.0834 149.042 40.991C149.042 40.8986 149.003 40.8326 148.932 40.7842C148.857 40.7358 148.578 40.6566 148.096 40.5421C147.746 40.4541 147.503 40.3485 147.361 40.2209C147.219 40.0933 147.149 39.9129 147.149 39.6708C147.149 39.3892 147.259 39.1472 147.48 38.9448C147.702 38.7423 148.016 38.6411 148.423 38.6411C148.808 38.6411 149.118 38.7159 149.361 38.8699L149.348 38.8743Z" fill="#727171"/>
<path d="M152.14 41.2242V41.8227L151.759 41.8359C151.379 41.8491 151.118 41.7831 150.98 41.6423C150.892 41.5499 150.843 41.4091 150.843 41.2198V39.3364H150.414V38.7687H150.843V37.915H151.64V38.7687H152.14V39.3364H151.64V40.9514C151.64 41.079 151.657 41.1538 151.688 41.1846C151.719 41.2154 151.817 41.2287 151.98 41.2287C152.007 41.2287 152.029 41.2287 152.056 41.2287C152.082 41.2287 152.109 41.2287 152.135 41.2287L152.14 41.2242Z" fill="#727171"/>
<path d="M154.489 39.4728C154.166 39.4728 153.949 39.5784 153.839 39.7852C153.777 39.904 153.746 40.0845 153.746 40.3309V41.7919H152.936V38.7335H153.701V39.266C153.825 39.0635 153.932 38.9227 154.024 38.8479C154.175 38.7247 154.37 38.6587 154.613 38.6587C154.626 38.6587 154.64 38.6587 154.653 38.6587C154.662 38.6587 154.688 38.6587 154.724 38.6587V39.4772C154.675 39.4728 154.626 39.4684 154.586 39.464C154.547 39.4596 154.516 39.464 154.489 39.464V39.4728Z" fill="#727171"/>
<path d="M157.449 41.3608C157.449 41.3608 157.423 41.396 157.392 41.4444C157.361 41.4928 157.325 41.5324 157.285 41.5676C157.157 41.6776 157.038 41.7568 156.918 41.7964C156.799 41.836 156.662 41.858 156.507 41.858C156.051 41.858 155.746 41.6952 155.586 41.3696C155.498 41.1892 155.454 40.9251 155.454 40.5775V38.7336H156.277V40.5775C156.277 40.7535 156.299 40.8811 156.339 40.9691C156.414 41.1231 156.555 41.2023 156.772 41.2023C157.046 41.2023 157.237 41.0923 157.334 40.8723C157.387 40.7535 157.414 40.5951 157.414 40.3971V38.7336H158.228V41.792H157.445V41.3608H157.449Z" fill="#727171"/>
<path d="M161.953 39.8339H161.13C161.117 39.7194 161.077 39.6182 161.015 39.5258C160.927 39.4026 160.785 39.341 160.595 39.341C160.325 39.341 160.139 39.473 160.038 39.7415C159.984 39.8823 159.958 40.0715 159.958 40.3091C159.958 40.5468 159.984 40.714 160.038 40.8504C160.135 41.1056 160.312 41.2332 160.577 41.2332C160.763 41.2332 160.9 41.1848 160.98 41.0836C161.06 40.9824 161.108 40.8504 161.126 40.692H161.945C161.927 40.934 161.838 41.1628 161.679 41.3829C161.427 41.7305 161.055 41.9065 160.56 41.9065C160.064 41.9065 159.701 41.7613 159.467 41.4709C159.232 41.1804 159.117 40.802 159.117 40.3355C159.117 39.8119 159.245 39.4026 159.502 39.1078C159.759 38.8129 160.117 38.6721 160.568 38.6721C160.953 38.6721 161.268 38.7601 161.515 38.9318C161.759 39.1034 161.905 39.407 161.949 39.8427L161.953 39.8339Z" fill="#727171"/>
<path d="M164.206 41.2242V41.8227L163.825 41.8359C163.445 41.8491 163.183 41.7831 163.046 41.6423C162.958 41.5499 162.909 41.4091 162.909 41.2198V39.3364H162.48V38.7687H162.909V37.915H163.706V38.7687H164.206V39.3364H163.706V40.9514C163.706 41.079 163.723 41.1538 163.754 41.1846C163.785 41.2154 163.883 41.2287 164.046 41.2287C164.073 41.2287 164.095 41.2287 164.126 41.2287C164.152 41.2287 164.179 41.2287 164.206 41.2287V41.2242Z" fill="#727171"/>
<path d="M165.834 37.6335V38.3728H165.02V37.6335H165.834ZM165.834 38.7337V41.7921H165.02V38.7337H165.834Z" fill="#727171"/>
<path d="M169.466 39.1208C169.728 39.442 169.856 39.8249 169.856 40.2693C169.856 40.7138 169.728 41.101 169.466 41.4223C169.205 41.7435 168.812 41.9019 168.285 41.9019C167.759 41.9019 167.365 41.7435 167.104 41.4223C166.843 41.1054 166.714 40.7182 166.714 40.2693C166.714 39.8205 166.843 39.4464 167.104 39.1208C167.365 38.7951 167.759 38.6367 168.285 38.6367C168.812 38.6367 169.205 38.7995 169.466 39.1208ZM168.281 39.31C168.046 39.31 167.865 39.3936 167.736 39.5564C167.608 39.7237 167.546 39.9569 167.546 40.2649C167.546 40.573 167.608 40.8062 167.736 40.9734C167.865 41.1406 168.046 41.2242 168.281 41.2242C168.515 41.2242 168.697 41.1406 168.82 40.9734C168.949 40.8062 169.011 40.5686 169.011 40.2649C169.011 39.9613 168.949 39.7237 168.82 39.5564C168.697 39.3892 168.515 39.31 168.281 39.31Z" fill="#727171"/>
<path d="M172.165 39.3278C171.891 39.3278 171.705 39.4422 171.603 39.6711C171.55 39.7943 171.524 39.9483 171.524 40.1375V41.7921H170.723V38.7425H171.497V39.187C171.599 39.0286 171.696 38.9186 171.789 38.8482C171.953 38.7249 172.165 38.6633 172.418 38.6633C172.736 38.6633 172.997 38.7469 173.196 38.9098C173.4 39.077 173.502 39.3498 173.502 39.7327V41.7921H172.679V39.9351C172.679 39.7723 172.656 39.6491 172.612 39.5654C172.533 39.407 172.382 39.3278 172.161 39.3278H172.165Z" fill="#727171"/>
<path d="M39.7904 12.7968L26.052 17.7254V6.89126L39.7904 0V12.7968Z" fill="#898989"/>
<path d="M18.4062 26.553L53.2986 32.0493V21.3823L18.4062 11.3667V26.553Z" fill="#727171"/>
<path d="M27.1891 44.9999H0V35.6927L27.1891 30.6233V44.9999Z" fill="#898989"/>
<path d="M72.09 36.5552V44.9999H27.1892V30.6233L72.09 36.5552Z" fill="#727171"/>
<path d="M68.3466 13.4173V22.3988L39.7903 12.7968V0L68.3466 13.4173Z" fill="#727171"/>
<path d="M3.74316 18.5836V30.5135L18.4063 26.553V11.3667L3.74316 18.5836Z" fill="#898989"/>
</g>
<defs>
<clipPath id="clip0_662_50811">
<rect width="213" height="45" fill="white"/>
</clipPath>
</defs>
</svg>
